<svg xmlns="http://www.w3.org/2000/svg" viewBox="0 0 30.82 21.57"><defs><style>.cls-1{fill:#deddda;}</style></defs><g id="레이어_2" data-name="레이어 2"><g id="레이어_1-2" data-name="레이어 1"><path class="cls-1" d="M30.17,3.37A3.85,3.85,0,0,0,27.45.64C25,0,15.41,0,15.41,0S5.77,0,3.37.64A3.88,3.88,0,0,0,.64,3.37,40.35,40.35,0,0,0,0,10.79,40.26,40.26,0,0,0,.64,18.2a3.88,3.88,0,0,0,2.73,2.73c2.4.64,12,.64,12,.64s9.63,0,12-.64a3.85,3.85,0,0,0,2.72-2.73,39.66,39.66,0,0,0,.65-7.41,39.74,39.74,0,0,0-.65-7.42m-17.84,12V6.16l8,4.63Z"/></g></g></svg>