<svg xmlns="http://www.w3.org/2000/svg" viewBox="0 0 29.12 29.12"><defs><style>.cls-1{fill:#deddda;}</style></defs><g id="레이어_2" data-name="레이어 2"><g id="레이어_1-2" data-name="레이어 1"><path class="cls-1" d="M14.56,0c-4,0-4.45,0-6,.09A10.46,10.46,0,0,0,5,.77,7.19,7.19,0,0,0,2.44,2.44,7.31,7.31,0,0,0,.76,5,10.74,10.74,0,0,0,.09,8.56c-.07,1.55-.09,2-.09,6s0,4.45.09,6A10.74,10.74,0,0,0,.76,24.1,7.45,7.45,0,0,0,5,28.36,10.74,10.74,0,0,0,8.56,29c1.55.07,2,.09,6,.09s4.45,0,6-.09a10.74,10.74,0,0,0,3.54-.67,7.45,7.45,0,0,0,4.26-4.26A10.74,10.74,0,0,0,29,20.56c.07-1.55.09-2,.09-6s0-4.45-.09-6A10.74,10.74,0,0,0,28.36,5a7.31,7.31,0,0,0-1.68-2.58A7.19,7.19,0,0,0,24.1.77,10.46,10.46,0,0,0,20.56.09C19,0,18.51,0,14.56,0m0,2.62c3.89,0,4.35,0,5.88.09a8,8,0,0,1,2.71.5A4.57,4.57,0,0,1,24.82,4.3,4.44,4.44,0,0,1,25.91,6a8,8,0,0,1,.5,2.71c.07,1.53.09,2,.09,5.88s0,4.35-.09,5.88a8,8,0,0,1-.5,2.71,4.85,4.85,0,0,1-2.76,2.76,8,8,0,0,1-2.71.5c-1.53.07-2,.09-5.88.09s-4.35,0-5.88-.09A8,8,0,0,1,6,25.91,4.44,4.44,0,0,1,4.3,24.82a4.44,4.44,0,0,1-1.09-1.67,8,8,0,0,1-.5-2.71c-.07-1.53-.09-2-.09-5.88s0-4.35.09-5.88A8,8,0,0,1,3.21,6,4.44,4.44,0,0,1,4.3,4.3,4.57,4.57,0,0,1,6,3.21a8,8,0,0,1,2.71-.5c1.53-.07,2-.09,5.88-.09"/><path class="cls-1" d="M14.56,19.41a4.85,4.85,0,1,1,4.85-4.85,4.85,4.85,0,0,1-4.85,4.85m0-12.33A7.48,7.48,0,1,0,22,14.56a7.48,7.48,0,0,0-7.48-7.48"/><path class="cls-1" d="M24.08,6.79A1.75,1.75,0,1,1,22.33,5a1.75,1.75,0,0,1,1.75,1.75"/></g></g></svg>